<mxfile host="app.diagrams.net" modified="2023-11-27T06:29:58.629Z" agent="Mozilla/5.0 (Windows NT 10.0; Win64; x64) AppleWebKit/537.36 (KHTML, like Gecko) Chrome/116.0.0.0 Safari/537.36" etag="_IzS8fqOO5Ipy2rkigZk" version="22.1.4" type="device">
  <diagram name="Trang-1" id="0JMb4CbzAdpinn2ntvc2">
    <mxGraphModel dx="1940" dy="1092" grid="1" gridSize="10" guides="1" tooltips="1" connect="1" arrows="1" fold="1" page="0" pageScale="1" pageWidth="827" pageHeight="1169" math="0" shadow="0">
      <root>
        <mxCell id="0" />
        <mxCell id="1" parent="0" />
        <mxCell id="S-9fzgqnBOspI3rCFfvw-1" value="Product" style="swimlane;fontStyle=0;childLayout=stackLayout;horizontal=1;startSize=26;horizontalStack=0;resizeParent=1;resizeParentMax=0;resizeLast=0;collapsible=1;marginBottom=0;align=center;fontSize=14;" vertex="1" parent="1">
          <mxGeometry x="-470" y="80" width="160" height="266" as="geometry" />
        </mxCell>
        <mxCell id="S-9fzgqnBOspI3rCFfvw-2" value="product_id" style="text;strokeColor=none;fillColor=none;spacingLeft=4;spacingRight=4;overflow=hidden;rotatable=0;points=[[0,0.5],[1,0.5]];portConstraint=eastwest;fontSize=16;whiteSpace=wrap;html=1;" vertex="1" parent="S-9fzgqnBOspI3rCFfvw-1">
          <mxGeometry y="26" width="160" height="30" as="geometry" />
        </mxCell>
        <mxCell id="S-9fzgqnBOspI3rCFfvw-3" value="productCode" style="text;strokeColor=none;fillColor=none;spacingLeft=4;spacingRight=4;overflow=hidden;rotatable=0;points=[[0,0.5],[1,0.5]];portConstraint=eastwest;fontSize=16;whiteSpace=wrap;html=1;" vertex="1" parent="S-9fzgqnBOspI3rCFfvw-1">
          <mxGeometry y="56" width="160" height="30" as="geometry" />
        </mxCell>
        <mxCell id="S-9fzgqnBOspI3rCFfvw-4" value="productName" style="text;strokeColor=none;fillColor=none;spacingLeft=4;spacingRight=4;overflow=hidden;rotatable=0;points=[[0,0.5],[1,0.5]];portConstraint=eastwest;fontSize=16;whiteSpace=wrap;html=1;" vertex="1" parent="S-9fzgqnBOspI3rCFfvw-1">
          <mxGeometry y="86" width="160" height="30" as="geometry" />
        </mxCell>
        <mxCell id="S-9fzgqnBOspI3rCFfvw-19" value="categories" style="text;strokeColor=none;fillColor=none;spacingLeft=4;spacingRight=4;overflow=hidden;rotatable=0;points=[[0,0.5],[1,0.5]];portConstraint=eastwest;fontSize=16;whiteSpace=wrap;html=1;" vertex="1" parent="S-9fzgqnBOspI3rCFfvw-1">
          <mxGeometry y="116" width="160" height="30" as="geometry" />
        </mxCell>
        <mxCell id="S-9fzgqnBOspI3rCFfvw-20" value="productType" style="text;strokeColor=none;fillColor=none;spacingLeft=4;spacingRight=4;overflow=hidden;rotatable=0;points=[[0,0.5],[1,0.5]];portConstraint=eastwest;fontSize=16;whiteSpace=wrap;html=1;" vertex="1" parent="S-9fzgqnBOspI3rCFfvw-1">
          <mxGeometry y="146" width="160" height="30" as="geometry" />
        </mxCell>
        <mxCell id="S-9fzgqnBOspI3rCFfvw-21" value="insertDate" style="text;strokeColor=none;fillColor=none;spacingLeft=4;spacingRight=4;overflow=hidden;rotatable=0;points=[[0,0.5],[1,0.5]];portConstraint=eastwest;fontSize=16;whiteSpace=wrap;html=1;" vertex="1" parent="S-9fzgqnBOspI3rCFfvw-1">
          <mxGeometry y="176" width="160" height="30" as="geometry" />
        </mxCell>
        <mxCell id="S-9fzgqnBOspI3rCFfvw-22" value="quantity" style="text;strokeColor=none;fillColor=none;spacingLeft=4;spacingRight=4;overflow=hidden;rotatable=0;points=[[0,0.5],[1,0.5]];portConstraint=eastwest;fontSize=16;whiteSpace=wrap;html=1;" vertex="1" parent="S-9fzgqnBOspI3rCFfvw-1">
          <mxGeometry y="206" width="160" height="30" as="geometry" />
        </mxCell>
        <mxCell id="S-9fzgqnBOspI3rCFfvw-23" value="price" style="text;strokeColor=none;fillColor=none;spacingLeft=4;spacingRight=4;overflow=hidden;rotatable=0;points=[[0,0.5],[1,0.5]];portConstraint=eastwest;fontSize=16;whiteSpace=wrap;html=1;" vertex="1" parent="S-9fzgqnBOspI3rCFfvw-1">
          <mxGeometry y="236" width="160" height="30" as="geometry" />
        </mxCell>
        <mxCell id="S-9fzgqnBOspI3rCFfvw-13" value="User" style="swimlane;fontStyle=0;childLayout=stackLayout;horizontal=1;startSize=26;horizontalStack=0;resizeParent=1;resizeParentMax=0;resizeLast=0;collapsible=1;marginBottom=0;align=center;fontSize=14;" vertex="1" parent="1">
          <mxGeometry x="-490" y="-150" width="160" height="176" as="geometry" />
        </mxCell>
        <mxCell id="S-9fzgqnBOspI3rCFfvw-14" value="user_id" style="text;strokeColor=none;fillColor=none;spacingLeft=4;spacingRight=4;overflow=hidden;rotatable=0;points=[[0,0.5],[1,0.5]];portConstraint=eastwest;fontSize=16;whiteSpace=wrap;html=1;" vertex="1" parent="S-9fzgqnBOspI3rCFfvw-13">
          <mxGeometry y="26" width="160" height="30" as="geometry" />
        </mxCell>
        <mxCell id="S-9fzgqnBOspI3rCFfvw-15" value="username" style="text;strokeColor=none;fillColor=none;spacingLeft=4;spacingRight=4;overflow=hidden;rotatable=0;points=[[0,0.5],[1,0.5]];portConstraint=eastwest;fontSize=16;whiteSpace=wrap;html=1;" vertex="1" parent="S-9fzgqnBOspI3rCFfvw-13">
          <mxGeometry y="56" width="160" height="30" as="geometry" />
        </mxCell>
        <mxCell id="S-9fzgqnBOspI3rCFfvw-16" value="email" style="text;strokeColor=none;fillColor=none;spacingLeft=4;spacingRight=4;overflow=hidden;rotatable=0;points=[[0,0.5],[1,0.5]];portConstraint=eastwest;fontSize=16;whiteSpace=wrap;html=1;" vertex="1" parent="S-9fzgqnBOspI3rCFfvw-13">
          <mxGeometry y="86" width="160" height="30" as="geometry" />
        </mxCell>
        <mxCell id="S-9fzgqnBOspI3rCFfvw-17" value="password" style="text;strokeColor=none;fillColor=none;spacingLeft=4;spacingRight=4;overflow=hidden;rotatable=0;points=[[0,0.5],[1,0.5]];portConstraint=eastwest;fontSize=16;whiteSpace=wrap;html=1;" vertex="1" parent="S-9fzgqnBOspI3rCFfvw-13">
          <mxGeometry y="116" width="160" height="30" as="geometry" />
        </mxCell>
        <mxCell id="S-9fzgqnBOspI3rCFfvw-18" value="role" style="text;strokeColor=none;fillColor=none;spacingLeft=4;spacingRight=4;overflow=hidden;rotatable=0;points=[[0,0.5],[1,0.5]];portConstraint=eastwest;fontSize=16;whiteSpace=wrap;html=1;" vertex="1" parent="S-9fzgqnBOspI3rCFfvw-13">
          <mxGeometry y="146" width="160" height="30" as="geometry" />
        </mxCell>
      </root>
    </mxGraphModel>
  </diagram>
</mxfile>
